<svg width="1623" height="276" viewBox="0 0 1623 276" fill="none" xmlns="http://www.w3.org/2000/svg">
<path d="M1111 105L1145 2V209L1057.5 272L1090.5 169L1004 105H1111Z" fill="#B26E63" stroke="#B26E63"/>
<path d="M845 106L810.5 4L776 106H670L757.5 170L724.5 272.5L810.5 210.5L898.5 272.5L864.5 170L951.5 106H845Z" fill="#B26E63" stroke="#B26E63"/>
<path d="M511 106L476.5 4L442 106H336L423.5 170L390.5 272.5L476.5 210.5L564.5 272.5L530.5 170L617.5 106H511Z" fill="#B26E63" stroke="#B26E63"/>
<path d="M1513 106L1478.5 4L1444 106H1338L1425.5 170L1392.5 272.5L1478.5 210.5L1566.5 272.5L1532.5 170L1619.5 106H1513Z" fill="#B26E63" fill-opacity="0.3" stroke="#B26E63" stroke-width="2"/>
<path d="M177 106L142.5 4L108 106H2L89.5 170L56.5 272.5L142.5 210.5L230.5 272.5L196.5 170L283.5 106H177Z" fill="#B26E63" stroke="#B26E63"/>
<path d="M1179 106L1144.5 4L1110 106H1004L1091.5 170L1058.5 272.5L1144.5 210.5L1232.5 272.5L1198.5 170L1285.5 106H1179Z" fill="#B26E63" fill-opacity="0.3" stroke="#B26E63" stroke-width="2"/>
</svg>
