<svg width="1622" height="272" viewBox="0 0 1622 272" fill="none" xmlns="http://www.w3.org/2000/svg">
<path d="M1513.5 104L1479 2L1444.5 104H1338.5L1426 168L1393 270.5L1479 208.5L1567 270.5L1533 168L1620 104H1513.5Z" fill="#B26E63" stroke="#B26E63"/>
<path d="M1179.5 104L1145 2L1110.5 104H1004.5L1092 168L1059 270.5L1145 208.5L1233 270.5L1199 168L1286 104H1179.5Z" fill="#B26E63" stroke="#B26E63"/>
<path d="M845.5 104L811 2L776.5 104H670.5L758 168L725 270.5L811 208.5L899 270.5L865 168L952 104H845.5Z" fill="#B26E63" stroke="#B26E63"/>
<path d="M511.5 104L477 2L442.5 104H336.5L424 168L391 270.5L477 208.5L565 270.5L531 168L618 104H511.5Z" fill="#B26E63" stroke="#B26E63"/>
<path d="M177 104L142.5 2L108 104H2L89.5 168L56.5 270.5L142.5 208.5L230.5 270.5L196.5 168L283.5 104H177Z" fill="#B26E63" stroke="#B26E63"/>
</svg>
