<svg width="84" height="100" viewBox="0 0 84 100" fill="none" xmlns="http://www.w3.org/2000/svg">
<path d="M25.6004 39.6734C25.6004 45.1909 20.4394 49.6638 14.073 49.6638C7.70661 49.6638 2.54563 45.1909 2.54563 39.6734C2.54563 34.1558 7.70661 29.683 14.073 29.683C20.4394 29.683 25.6004 34.1558 25.6004 39.6734Z" fill="#0DAB76"/>
<path d="M20.5572 73.1028C20.4291 73.5511 20.0448 73.9994 19.4044 74.4476C18.764 74.8319 18.1876 75.024 17.6753 75.024C17.0349 75.024 16.4906 74.7999 16.0423 74.3516C15.594 73.9033 15.3698 73.3589 15.3698 72.7185C15.3698 72.6545 15.3698 72.4944 15.3698 72.2382C15.4339 71.9821 15.4659 71.822 15.4659 71.7579L21.3256 48.3189H20.5572C18.1876 49.2795 15.9462 50.1441 13.8329 50.9126C11.7195 51.6811 9.44605 52.0653 7.01249 52.0653C5.98783 52.0653 5.02722 51.8732 4.13064 51.489C3.29811 51.0407 2.56164 50.4643 1.92123 49.7598C1.34486 48.9914 0.864553 48.1588 0.480307 47.2622C0.160102 46.3016 0 45.309 0 44.2843C0 42.2991 0.352225 40.3778 1.05668 38.5207C1.76113 36.5994 2.75376 34.9023 4.03458 33.4294C5.37944 31.9565 6.91643 30.7717 8.64553 29.8751C10.4387 28.9785 12.3919 28.5303 14.5053 28.5303C16.1704 28.5303 17.8034 28.7544 19.4044 29.2027C21.0054 29.5869 22.4784 30.3234 23.8232 31.4121L24.6878 29.4909L28.9145 2.40154C29.0426 1.88921 29.3948 1.37688 29.9712 0.864553C30.5476 0.288184 31.0599 0 31.5082 0C32.6609 0 33.4614 0.480307 33.9097 1.44092C34.422 2.3375 34.6782 3.29811 34.6782 4.32277V4.70701L29.3948 35.2546V37.3679C29.5229 37.3679 29.619 37.3999 29.683 37.464C29.8111 37.528 29.9071 37.528 29.9712 37.464C30.0352 37.464 30.1633 37.3999 30.3554 37.2719C30.6116 37.0797 30.8678 36.8876 31.1239 36.6955C31.4441 36.5034 31.7323 36.3112 31.9885 36.1191C32.3087 35.927 32.5328 35.7669 32.6609 35.6388C32.7249 35.6388 32.821 35.6068 32.9491 35.5427C33.0772 35.4147 33.1732 35.3186 33.2373 35.2546C37.2719 32.3087 41.2744 29.2667 45.245 26.1287C49.2795 22.9907 53.058 19.5965 56.5802 15.9462C57.0285 15.4979 57.7009 14.6013 58.5975 13.2565C59.4941 11.8476 60.4547 10.4067 61.4793 8.93372C62.568 7.46077 63.5927 6.14793 64.5533 4.9952C65.5139 3.84246 66.3144 3.26609 66.9549 3.26609C67.5953 3.26609 68.1396 3.49023 68.5879 3.93852C69.1002 4.38681 69.3564 4.96318 69.3564 5.66763C69.3564 5.79571 69.3244 5.89177 69.2603 5.95581C69.2603 6.01985 69.2603 6.08389 69.2603 6.14793C69.2603 6.27602 69.1963 6.53218 69.0682 6.91643C68.9401 7.23663 68.8441 7.46077 68.78 7.58886C68.5879 7.9731 68.2677 8.51745 67.8194 9.2219C67.4352 9.86231 67.0189 10.5027 66.5706 11.1431C66.1864 11.7835 65.8341 12.3599 65.5139 12.8722C65.1937 13.3205 65.0336 13.5767 65.0336 13.6407L52.9299 25.8405L30.8357 42.171C30.5796 42.4272 30.4195 42.6193 30.3554 42.7474C30.3554 42.8114 30.3554 43.0035 30.3554 43.3237V43.804C30.3554 43.9321 30.3874 44.0282 30.4515 44.0922L48.6071 71.4697C48.7352 72.0461 48.9593 72.5264 49.2795 72.9107C49.5997 73.2949 49.9199 73.6791 50.2402 74.0634C50.5604 74.3836 50.8165 74.7678 51.0086 75.2161C51.2648 75.6004 51.3929 76.0807 51.3929 76.6571C51.3929 77.3615 51.2648 77.7458 51.0086 77.8098C50.8165 77.9379 50.3682 78.0019 49.6638 78.0019C48.9593 78.0019 48.2869 77.8098 47.6465 77.4255C47.0061 77.0413 46.3977 76.561 45.8213 75.9846C45.245 75.3442 44.7326 74.6718 44.2843 73.9673C43.9001 73.1988 43.6119 72.5264 43.4198 71.95L26.7051 51.1047L20.5572 73.1028ZM4.61095 42.9395C4.61095 44.0922 4.86712 45.1489 5.37944 46.1095C5.89177 47.0061 6.78834 47.4544 8.06916 47.4544C9.34998 47.4544 10.6308 47.2943 11.9116 46.9741C13.1924 46.6539 14.4412 46.2376 15.658 45.7253C16.8748 45.2129 18.0596 44.6366 19.2123 43.9962C20.365 43.3557 21.4537 42.7474 22.4784 42.171C22.4784 42.0429 22.4784 41.7867 22.4784 41.4025C22.5424 40.9542 22.5744 40.698 22.5744 40.634C22.5744 39.5453 22.2863 38.5847 21.7099 37.7522C21.1976 36.8556 20.5251 36.1191 19.6926 35.5427C18.9241 34.9023 18.0275 34.454 17.0029 34.1979C16.0423 33.8777 15.0817 33.7176 14.121 33.7176C12.8402 33.7176 11.6234 33.9417 10.4707 34.39C9.31796 34.8383 8.29331 35.4787 7.39673 36.3112C6.5642 37.1438 5.89177 38.1364 5.37944 39.2891C4.86712 40.3778 4.61095 41.5946 4.61095 42.9395Z" fill="#222345"/>
<path d="M35.879 98.0788C36.3913 96.7979 36.8716 95.389 37.3199 93.8521C37.8322 92.251 38.2805 90.65 38.6647 89.049C39.113 87.3839 39.4653 85.7829 39.7214 84.2459C39.9776 82.6449 40.1057 81.1399 40.1057 79.731V78.8665C39.081 78.7384 38.0564 78.5463 37.0317 78.2901C36.0711 78.0339 35.2386 77.6817 34.5341 77.2334C33.8297 76.7211 33.2213 76.0807 32.7089 75.3122C32.2606 74.4797 32.0365 73.487 32.0365 72.3343C32.0365 71.0535 32.2286 70.0288 32.6129 69.2603C32.9971 68.4278 33.9577 68.0115 35.4947 68.0115C36.5834 68.0115 37.6081 68.2677 38.5687 68.78C39.5933 69.2283 40.554 69.7727 41.4505 70.4131L41.9308 69.5485L47.1182 49.8559C46.9901 48.1908 47.0541 46.5258 47.3103 44.8607C47.6305 43.1316 48.3029 41.6587 49.3276 40.4419C49.2635 40.4419 49.0714 40.4419 48.7512 40.4419C48.431 40.3778 48.2069 40.3458 48.0788 40.3458C47.0541 40.3458 46.0295 40.5059 45.0048 40.8261C43.9802 41.0823 42.9875 41.4345 42.0269 41.8828C41.1303 42.267 40.2017 42.6513 39.2411 43.0355C38.2805 43.3557 37.3199 43.6119 36.3593 43.804C36.2312 43.804 35.975 43.74 35.5908 43.6119C35.2706 43.4838 35.0464 43.3237 34.9184 43.1316C34.7262 43.1956 34.406 43.2917 33.9577 43.4198C33.5094 43.5479 33.0291 43.6439 32.5168 43.708C32.0045 43.772 31.5242 43.8681 31.0759 43.9962C30.6276 44.0602 30.3394 44.1242 30.2113 44.1883H29.731C28.4502 44.1883 27.8098 43.5479 27.8098 42.267C27.8098 41.6266 28.2261 41.1143 29.0586 40.7301C29.8911 40.3458 30.8838 39.9936 32.0365 39.6734C33.1892 39.2891 34.342 38.9689 35.4947 38.7128C36.6475 38.3926 37.512 38.0403 38.0884 37.6561C39.5613 37.1438 40.8421 36.7595 41.9308 36.5034C43.0195 36.2472 44.0762 36.0551 45.1009 35.927C46.1255 35.7989 47.1182 35.7349 48.0788 35.7349C49.1034 35.6708 50.2882 35.6388 51.633 35.6388C54.1947 35.6388 56.7563 35.959 59.318 36.5994C61.9436 37.1758 64.2811 38.1364 66.3305 39.4813C68.4438 40.8261 70.1409 42.5873 71.4217 44.7646C72.7666 46.942 73.439 49.5357 73.439 52.5456C73.439 55.3634 72.7666 57.9251 71.4217 60.2305C70.1409 62.472 68.5078 64.4893 66.5226 66.2824C64.6013 68.0756 62.488 69.6766 60.1825 71.0855C57.9411 72.4304 55.8277 73.5831 53.8425 74.5437C51.9212 75.4403 50.2882 76.1768 48.9433 76.7531C47.6625 77.2655 47.0221 77.5536 47.0221 77.6177V77.8098C47.0221 77.8738 47.0541 77.9059 47.1182 77.9059C48.463 80.4035 49.8399 82.6449 51.2488 84.6302C52.7217 86.5514 54.3228 88.2165 56.0519 89.6254C57.845 90.9702 59.8623 92.0269 62.1037 92.7954C64.3452 93.4998 66.9388 93.8521 69.8847 93.8521C70.8453 93.8521 71.806 93.724 72.7666 93.4678C73.7272 93.2116 74.6558 92.9555 75.5524 92.6993C76.513 92.3791 77.4416 92.0909 78.3381 91.8348C79.2347 91.5786 80.1633 91.4505 81.1239 91.4505C81.5082 91.4505 81.9244 91.5786 82.3727 91.8348C82.885 92.0269 83.1412 92.3791 83.1412 92.8915C83.1412 93.9161 82.4047 94.7807 80.9318 95.4851C79.5229 96.1896 77.9219 96.7659 76.1287 97.2142C74.3356 97.6625 72.5745 97.9827 70.8453 98.1748C69.1162 98.367 67.9955 98.463 67.4832 98.463C62.8722 98.463 58.5815 97.4063 54.611 95.293C50.7045 93.1796 47.5664 90.0416 45.1969 85.879H44.7166C44.5885 86.6475 44.3964 87.8322 44.1403 89.4332C43.9481 90.9702 43.5959 92.5392 43.0836 94.1402C42.6353 95.6772 42.0269 97.0541 41.2584 98.2709C40.554 99.4236 39.6894 100 38.6647 100C37.8963 100 37.2238 99.9039 36.6475 99.7118C36.1351 99.5197 35.879 98.9753 35.879 98.0788ZM47.5985 72.3343H48.0788C48.2069 72.2703 48.431 72.1742 48.7512 72.0461C49.1354 71.918 49.3276 71.822 49.3276 71.7579C51.4409 70.7973 53.6183 69.7406 55.8598 68.5879C58.1012 67.3711 60.1505 65.9622 62.0077 64.3612C63.8649 62.7602 65.3698 60.967 66.5226 58.9817C67.7394 56.9324 68.3477 54.5629 68.3477 51.8732C68.3477 50.1441 67.8674 48.5751 66.9068 47.1662C66.0102 45.7573 64.8255 44.5725 63.3525 43.6119C61.9436 42.5873 60.4067 41.8188 58.7416 41.3064C57.0765 40.7301 55.4755 40.4419 53.9385 40.4419H52.6897C53.3301 40.9542 53.6503 41.4986 53.6503 42.0749C53.7144 42.6513 53.7464 43.2917 53.7464 43.9962C53.7464 44.1883 53.7144 44.5085 53.6503 44.9568C53.6503 45.341 53.6503 45.5331 53.6503 45.5331L47.5985 69.9328V72.3343Z" fill="#222345"/>
</svg>
