<svg width="141" height="140" viewBox="0 0 141 140" fill="none" xmlns="http://www.w3.org/2000/svg">
<path d="M70.0151 70V0C108.675 0 140.015 31.3401 140.015 70C140.015 108.66 108.675 140 70.0151 140C65.6136 140 61.222 139.585 56.8984 138.76L70.0151 70Z" fill="#B26E63"/>
<path opacity="0.7" d="M70.0128 70.0023L56.8961 138.762C18.921 131.518 -5.99144 94.8608 1.25271 56.8856C4.30502 40.8849 12.842 26.4496 25.3931 16.0664L70.0128 70.0023Z" fill="#B26E63"/>
<path opacity="0.4" d="M70.0142 70.0027L25.3945 16.0668C35.6295 7.5997 48.0623 2.21953 61.2409 0.554688L70.0142 70.0027Z" fill="#B26E63"/>
<path opacity="0.2" d="M70.0155 70L61.2422 0.551971C64.1522 0.184354 67.0824 0 70.0155 0V70Z" fill="#B26E63"/>
</svg>
